<svg height="auto" viewBox="0 0 2000 1000" xmlns="http://www.w3.org/2000/svg"><path d="M0 765.414c26.6-51.859 79.8-252.605 133-259.293 53.2-6.689 79.8 167.14 133 225.85 53.2 58.708 79.8 169.5 133 67.693 53.2-101.808 79.8-554.772 133-576.733 53.2-21.962 79.8 418.151 133 466.926 53.2 48.776 79.8-219.744 133-223.05 53.2-3.305 79.8 208.64 133 206.522 53.2-2.118 79.8-110.771 133-217.11 53.2-106.34 79.8-320.583 133-314.59 53.2 5.994 79.8 265.604 133 344.556 53.2 78.951 79.8 23.095 133 50.203 53.2 27.109 79.8 57.346 133 85.34 53.2 27.995 79.8 155.213 133 54.633 53.2-100.58 79.8-501.687 133-557.532 53.2-55.845 106.4 222.646 133 278.308l5 602.863H0Z" fill="#b666191a"/><path d="M0 765.414c26.6-51.859 79.8-252.605 133-259.293 53.2-6.689 79.8 167.14 133 225.85 53.2 58.708 79.8 169.5 133 67.693 53.2-101.808 79.8-554.772 133-576.733 53.2-21.962 79.8 418.151 133 466.926 53.2 48.776 79.8-219.744 133-223.05 53.2-3.305 79.8 208.64 133 206.522 53.2-2.118 79.8-110.771 133-217.11 53.2-106.34 79.8-320.583 133-314.59 53.2 5.994 79.8 265.604 133 344.556 53.2 78.951 79.8 23.095 133 50.203 53.2 27.109 79.8 57.346 133 85.34 53.2 27.995 79.8 155.213 133 54.633 53.2-100.58 79.8-501.687 133-557.532 53.2-55.845 106.4 222.646 133 278.308" fill="none" stroke="#B66619" stroke-width="4"/></svg>